PathFileType	4	(X/Y/Z)	/Users/niels/Desktop/University/Third Semester/Perception and Action/Exam/Gymnastics Motion Tracking/Code for Gym Tracking/Analyzed Data/Webcam_Backflip/id1_3_trajectory_Sports2D/id1_3_trajectory_Sports2D_px_person00.trc
DataRate	CameraRate	NumFrames	NumMarkers	Units	OrigDataRate	OrigDataStartFrame	OrigNumFrames
29.71698113207547	29.71698113207547	8	22	m	29.71698113207547	53	106
Frame#	Time	Hip			RHip			RKnee			RAnkle			RBigToe			RSmallToe			RHeel			LHip			LKnee			LAnkle			LBigToe			LSmallToe			LHeel			Neck			Head			Nose			RShoulder			RElbow			RWrist			LShoulder			LElbow			LWrist		
		X1	Y1	Z1	X2	Y2	Z2	X3	Y3	Z3	X4	Y4	Z4	X5	Y5	Z5	X6	Y6	Z6	X7	Y7	Z7	X8	Y8	Z8	X9	Y9	Z9	X10	Y10	Z10	X11	Y11	Z11	X12	Y12	Z12	X13	Y13	Z13	X14	Y14	Z14	X15	Y15	Z15	X16	Y16	Z16	X17	Y17	Z17	X18	Y18	Z18	X19	Y19	Z19	X20	Y20	Z20	X21	Y21	Z21	X22	Y22	Z22
53	1.7834920634920632	1.1941768929600367	-0.5228095152421091	0.0	1.0149726859358754	-0.396695293558817	0.0	1.047184684079744	-0.2889904218615395	0.0	1.13077066067001	-0.2395511274642402	0.0	1.1166140221784067	-0.18119274940538033	0.0	1.1284458511660413	-0.1963305310218305	0.0	1.3066514371824092	-0.40885400132385014	0.0	1.0150718038935744	-0.39967571989824197	0.0	1.042674202027651	-0.2930981841870041	0.0	1.1231548947388594	-0.24066300821897255	0.0	1.1123252895976468	-0.20332076815299105	0.0	1.2681601561664853	-0.45887032693467344	0.0	1.1543044448247801	-0.2825959070037275	0.0	1.0059681497580673	-0.49820180130688557	0.0	0.777493805219714	-0.36417212399373033	0.0	0.9606839924307515	-0.45933010561430104	0.0	0.8650815747516915	-0.3603450378345307	0.0	0.9439074315653866	-0.3235254474841983	0.0	0.9875430239656399	-0.26133289141661953	0.0	0.8753351338836123	-0.3786621745805131	0.0	0.9471414666292662	-0.3421911581101739	0.0	0.9951098781078551	-0.2756917609477029	0.0
54	1.817142857142857	1.2266123442784393	-0.522373407019288	0.0	1.0252827491967504	-0.379093576274694	0.0	1.0264395406096551	-0.26784806330943706	0.0	1.0839980104117033	-0.18410880651536987	0.0	1.0603830241159946	-0.13066524091331394	0.0	1.071662453598722	-0.1438243315244706	0.0	1.2802520037574232	-0.37036471645206004	0.0	1.021631271117134	-0.3833622023227718	0.0	1.0166682726674574	-0.2729540121469239	0.0	1.0800871634197704	-0.1866305577359171	0.0	1.0546546625703628	-0.15937868316721462	0.0	1.2529452643587637	-0.4805957144612196	0.0	1.1124015340656321	-0.2370757743687644	0.0	1.035105867496957	-0.5234155694633285	0.0	0.7910538905416237	-0.37903281171313125	0.0	0.9843863467196501	-0.48624712019937283	0.0	0.8791733905014381	-0.36494446551129534	0.0	0.9578830151262647	-0.32386723987225396	0.0	0.9937766802878552	-0.26381282730686767	0.0	0.885373709152968	-0.38687214157316757	0.0	0.954645133720865	-0.34632658836201835	0.0	0.9954572893046847	-0.28044238340609623	0.0
55	1.8507936507936507	1.2135904395018087	-0.48779512091244176	0.0	1.0349972928271856	-0.35937842688634	0.0	1.0008418438456042	-0.2584948199314088	0.0	1.0215041562491491	-0.15253509636914345	0.0	0.9895481693439822	-0.11330702648657792	0.0	0.9978957234627513	-0.12245644764864724	0.0	1.1952892354195808	-0.3139676288976832	0.0	1.0294034547743152	-0.36475609638286893	0.0	0.990499307342925	-0.26358684543675964	0.0	1.023960360237987	-0.1567029456423574	0.0	0.9849196798735025	-0.1436371911449016	0.0	1.1879586116781975	-0.4720065162086822	0.0	1.0511314728348922	-0.2062022606277103	0.0	1.0326352583324827	-0.519675284050675	0.0	0.8119409228952571	-0.40248335768354754	0.0	0.9773510996632266	-0.488173938032419	0.0	0.8959426502980992	-0.3715770935812033	0.0	0.970568852815263	-0.3225622437386693	0.0	0.9918454165536874	-0.2651082323004934	0.0	0.9024505266372497	-0.3981913315573536	0.0	0.9664226609378658	-0.3526119450703761	0.0	0.9939598655892654	-0.29230687913996367	0.0
56	1.8844444444444441	1.1681608475898486	-0.4305655575522417	0.0	1.0419900288717858	-0.33875607097676347	0.0	0.9722664805289148	-0.2591656751436982	0.0	0.9521677087862928	-0.14542302252938982	0.0	0.9141545881133971	-0.12641941809334928	0.0	0.9173944027783495	-0.12958692761514853	0.0	1.0766015025039117	-0.25494796812208165	0.0	1.0365937041569597	-0.3449156766351297	0.0	0.9668767549390325	-0.26312542830587543	0.0	0.9633944914706866	-0.15116057270991484	0.0	0.913476064670754	-0.15261618873927407	0.0	1.080908081094867	-0.4262024548059317	0.0	0.9800806300632238	-0.1870267745932431	0.0	1.0110232314283112	-0.49686523006587896	0.0	0.8414934766532554	-0.43271136080219735	0.0	0.952592692102235	-0.4752564131300821	0.0	0.9139540004118311	-0.37895673781071815	0.0	0.9800285360588024	-0.320136739947809	0.0	0.9823385734826178	-0.2671302325404688	0.0	0.9260607533297861	-0.41103384042353075	0.0	0.9811939844691929	-0.35984933395424107	0.0	0.9916113650580983	-0.3119532548589076	0.0
57	1.9180952380952379	1.1165987859239352	-0.372572557101142	0.0	1.044718806110264	-0.3199591977090176	0.0	0.9447702176159669	-0.26827301483995025	0.0	0.885230902536201	-0.1604276689542481	0.0	0.8440502416097309	-0.16447854037214843	0.0	0.8406404754092501	-0.15978443249370025	0.0	0.9597638083705462	-0.2172339771963258	0.0	1.041885384028099	-0.32641007335975125	0.0	0.9486097375506166	-0.26963001477616394	0.0	0.9063992738125081	-0.16740740795565565	0.0	0.8499685943608128	-0.18278815544941604	0.0	0.9587092845720276	-0.36858601344489206	0.0	0.9098739617697077	-0.18104978133695027	0.0	0.9929368974082161	-0.47325579261886425	0.0	0.8807189841348928	-0.46611369188221297	0.0	0.9330416306011043	-0.46472457293718517	0.0	0.9324976038188683	-0.38601631254875496	0.0	0.9849568568840924	-0.31848228207826335	0.0	0.9676657798256513	-0.27290774682809704	0.0	0.9556094904408068	-0.42348312096687624	0.0	0.998246823848244	-0.367441260534637	0.0	0.9915055699940767	-0.3383551247158393	0.0
58	1.9517460317460316	1.0746309356502068	-0.3285739073995401	0.0	1.042535729564705	-0.30630728939439017	0.0	0.9225677346270416	-0.2845643914110551	0.0	0.8296888643188908	-0.19369593901926557	0.0	0.7875051224738859	-0.22075333452091483	0.0	0.7774711806307615	-0.2067281134376032	0.0	0.8674885596201711	-0.21215450428448077	0.0	1.0446155830534427	-0.3123955523813793	0.0	0.9376017273983632	-0.28147977334311325	0.0	0.8590202705115296	-0.20140202549997924	0.0	0.8013728704224087	-0.23048702094104218	0.0	0.8501927144446917	-0.33069374394348505	0.0	0.8504417609737595	-0.19249368227562064	0.0	0.9911582272240453	-0.4583075779941028	0.0	0.929490753985558	-0.4975375800500832	0.0	0.9330530744922957	-0.4644769003077866	0.0	0.9520478580027116	-0.3925188806293934	0.0	0.9853763417008632	-0.3203342798980467	0.0	0.9512590554727887	-0.28576266611745965	0.0	0.9899689800045998	-0.4336301907830646	0.0	1.0179808112247017	-0.375039631256629	0.0	0.9976801240092652	-0.3688948125134528	0.0
59	1.985396825396825	1.0453612594109185	-0.30362111926865626	0.0	1.0357094699614278	-0.30045955197291807	0.0	0.907740562826271	-0.3072198020163919	0.0	0.7940974918898458	-0.24156249677066707	0.0	0.7508540385382649	-0.28837708113964367	0.0	0.7374533840013426	-0.26486973688100307	0.0	0.8070754771246765	-0.23791987631272157	0.0	1.0445230104848422	-0.3054785375634661	0.0	0.9336637693006266	-0.298015532513015	0.0	0.8246970847468702	-0.24914130674347618	0.0	0.7709546050463123	-0.2908809844807044	0.0	0.7733326331534901	-0.32841845288555704	0.0	0.8101352300153072	-0.22475718478527004	0.0	1.0065182916346005	-0.45200714270784553	0.0	0.9856160662100693	-0.5215687967290582	0.0	0.9563787498531389	-0.4737196784687487	0.0	0.9747121146356522	-0.4001441171435079	0.0	0.9829714054880923	-0.32832558956107144	0.0	0.9366437717408475	-0.30822259255231566	0.0	1.0268671492554502	-0.43991321996843663	0.0	1.0407905364121919	-0.38131011507815527	0.0	1.012265368121585	-0.39959256265173254	0.0
60	2.019047619047619	1.0260494610860917	-0.29731504532929354	0.0	1.025224296251798	-0.303785287077252	0.0	0.8999197658549165	-0.3361370659084716	0.0	0.786541503426722	-0.30200339139296406	0.0	0.7397403865099479	-0.3611044993238561	0.0	0.7314838521244333	-0.33106896408296793	0.0	0.7764847754000027	-0.28701873193679445	0.0	1.0413382207982809	-0.30727880047365747	0.0	0.9341357424472302	-0.32042974025099696	0.0	0.8042930268809252	-0.30708058747780254	0.0	0.7584841105626078	-0.35834898754646727	0.0	0.7355447841957975	-0.3602165574694544	0.0	0.7965045272327103	-0.2796812165333509	0.0	1.0335863721287926	-0.4507791527139233	0.0	1.0445465678984514	-0.5344174710942987	0.0	1.0013766275820455	-0.49069750109398635	0.0	1.0045101469537452	-0.41361766049687543	0.0	0.9806551956648383	-0.34413152773351807	0.0	0.9269807081216143	-0.34113046625130433	0.0	1.0626764612758106	-0.44161451393599993	0.0	1.0646095476680895	-0.3843667649564308	0.0	1.0327520483748533	-0.42593322619566204	0.0
